<svg width="20" height="19" viewBox="0 0 20 19" fill="none" xmlns="http://www.w3.org/2000/svg">
<path d="M17.9688 8.16758H3.76146L8.1099 2.71807C8.31323 2.46282 8.41105 2.13375 8.38185 1.80325C8.35264 1.47274 8.1988 1.16788 7.95417 0.955726C7.70953 0.743572 7.39414 0.641504 7.07738 0.671976C6.76062 0.702448 6.46844 0.862964 6.2651 1.11821L0.275521 8.61754C0.235224 8.67719 0.199189 8.73985 0.167708 8.80502C0.167708 8.86752 0.167709 8.90501 0.0838544 8.96751C0.029557 9.11082 0.00112738 9.26337 0 9.41747C0.00112738 9.57157 0.029557 9.72412 0.0838544 9.86743C0.0838544 9.92992 0.083854 9.96742 0.167708 10.0299C0.199189 10.0951 0.235224 10.1577 0.275521 10.2174L6.2651 17.7167C6.37774 17.8578 6.51878 17.9713 6.6782 18.0491C6.83763 18.1268 7.01151 18.167 7.1875 18.1667C7.4674 18.1673 7.73865 18.0655 7.95417 17.8792C8.07547 17.7743 8.17573 17.6454 8.24923 17.5C8.32272 17.3546 8.368 17.1955 8.38247 17.0318C8.39693 16.868 8.3803 16.703 8.33353 16.546C8.28676 16.389 8.21076 16.2432 8.1099 16.1169L3.76146 10.6674H17.9688C18.2865 10.6674 18.5912 10.5357 18.8158 10.3013C19.0405 10.0669 19.1667 9.74896 19.1667 9.41747C19.1667 9.08598 19.0405 8.76806 18.8158 8.53366C18.5912 8.29926 18.2865 8.16758 17.9688 8.16758Z" fill="white"/>
</svg>
