<svg width="64" height="21" viewBox="0 0 64 21" fill="none" xmlns="http://www.w3.org/2000/svg">
<g clip-path="url(#clip0_216_730)">
<path d="M38.0448 5.76801C38.1008 5.28913 38.0596 4.80387 37.9236 4.34128C37.7877 3.87868 37.5599 3.44826 37.2538 3.07576C36.9476 2.70326 36.5695 2.39634 36.142 2.17336C35.7145 1.95037 35.2465 1.81591 34.7658 1.77802H26.9038L24.4148 6.87802H25.6588L22.6328 18.252H30.9218C32.2993 18.2529 33.6315 17.7604 34.6772 16.8637C35.7228 15.9671 36.4127 14.7255 36.6218 13.364L36.7668 12.42C36.815 12.1057 36.8003 11.785 36.7235 11.4765C36.6468 11.1679 36.5094 10.8777 36.3195 10.6227C36.1297 10.3677 35.891 10.1529 35.6174 9.99092C35.3438 9.82892 35.0407 9.7229 34.7258 9.67902C34.7258 9.67902 37.7678 8.29702 38.0448 5.76801ZM31.8848 12.829C31.8556 13.1137 31.7219 13.3774 31.5094 13.5691C31.297 13.7609 31.021 13.867 30.7348 13.867H28.8148L29.2598 11.556H30.7328C30.8947 11.5557 31.0547 11.5895 31.2027 11.655C31.3507 11.7205 31.4833 11.8164 31.5919 11.9363C31.7005 12.0563 31.7827 12.1978 31.8331 12.3516C31.8836 12.5054 31.9012 12.668 31.8848 12.829ZM33.1238 7.43702C33.0944 7.72151 32.9605 7.98498 32.7481 8.17652C32.5357 8.36806 32.2598 8.47405 31.9738 8.47402H30.0548L30.4988 6.16302H31.9738C32.1359 6.16297 32.2961 6.19699 32.4442 6.26287C32.5922 6.32875 32.7248 6.42502 32.8332 6.54543C32.9416 6.66584 33.0235 6.80771 33.0736 6.96183C33.1237 7.11594 33.1408 7.27886 33.1238 7.44002V7.43702Z" fill="#095DA9"/>
<path d="M53.1338 3.44002L50.6448 8.47702C50.6448 8.47702 49.8148 6.70001 46.8528 6.70001C46.233 6.71559 45.6223 6.85409 45.0564 7.10747C44.4905 7.36085 43.9805 7.72408 43.556 8.17608C43.1316 8.62808 42.8011 9.15986 42.5837 9.74058C42.3664 10.3213 42.2664 10.9394 42.2898 11.559C42.3488 13.752 45.7898 15.45 49.6568 13.159L47.4088 18.45C47.4088 18.45 40.6528 20.386 38.4408 16.316C36.2288 12.246 37.0178 9.08702 39.0728 6.16302C40.2256 4.62882 41.7807 3.44388 43.5657 2.7396C45.3508 2.03531 47.2961 1.8392 49.1858 2.17302L49.5858 1.77802L53.1338 3.44002Z" fill="#095DA9"/>
<path d="M64.0004 18.252L63.2104 1.77795H55.2694L52.9384 6.51895H54.1044L48.3164 18.252H54.0054L55.2694 15.408H58.6274V18.252H64.0004ZM56.6334 11.586L58.6784 6.99295V11.586H56.6334Z" fill="#095DA9"/>
<path d="M10.5485 20.346C7.54299 20.3817 4.57205 19.7027 1.88047 18.365L1.78946 18.313L1.74048 18.221C0.575767 15.7595 -0.0190005 13.0671 0.000462728 10.344C0.00942084 7.53083 0.600143 4.74991 1.73548 2.176L1.76447 2.116L1.81348 2.07C1.90448 1.986 4.11347 0 9.56147 0C14.9805 0 17.9335 1.954 18.0615 2.037L18.1295 2.082L18.1705 2.153C19.506 4.67796 20.2133 7.48764 20.2325 10.344C20.2319 13.148 19.5816 15.9136 18.3325 18.424L18.2945 18.494L18.2295 18.541C18.1215 18.614 15.6615 20.346 10.5485 20.346ZM2.32148 17.794C4.88979 19.0205 7.70236 19.6499 10.5485 19.635C14.9875 19.635 17.3335 18.269 17.7425 18.007C18.8945 15.6157 19.5004 12.9982 19.5165 10.344C19.485 7.64265 18.8256 4.98565 17.5905 2.583C15.1245 1.26605 12.3556 0.620806 9.56147 0.712C4.84747 0.712 2.68646 2.278 2.34446 2.552C1.28861 5.01529 0.733503 7.66405 0.711461 10.344C0.707904 12.914 1.257 15.4548 2.32148 17.794Z" fill="#095DA9"/>
<path d="M7.18286 6.87301C7.88237 7.46078 8.49482 8.14495 9.00186 8.90501C9.64544 10.3032 9.9162 11.8442 9.78784 13.378V15.487H10.1139V13.378C9.98551 11.8442 10.2563 10.3032 10.8998 8.90501C11.3267 8.24351 11.8433 7.64446 12.4348 7.12501C12.6751 6.91209 12.8487 6.63428 12.9348 6.32501C12.944 6.2921 12.9513 6.25872 12.9568 6.22501C12.9568 6.22501 13.9248 2.15501 9.95685 1.91801C6.43185 1.70801 6.28384 5.28501 7.17984 6.88001L7.18286 6.87301Z" fill="#095DA9"/>
<path d="M8.97381 15.151C8.97562 14.8031 8.89906 14.4593 8.74981 14.145C8.46296 13.5126 7.96621 12.9989 7.34381 12.691C6.8731 12.4837 6.39177 12.3015 5.90182 12.145C5.10311 11.9153 4.33966 11.5771 3.63281 11.14C3.35592 11.3399 3.14565 11.6185 3.02935 11.9395C2.91306 12.2606 2.89616 12.6092 2.98083 12.94C3.15883 14.54 5.03483 14.599 5.82483 14.461C6.61483 14.323 8.15581 14.105 8.41281 15.488H8.97183L8.97381 15.151Z" fill="#095DA9"/>
<path d="M16.474 11.2L16.415 11.115C15.7007 11.565 14.9264 11.9118 14.115 12.145C13.625 12.3014 13.1437 12.4837 12.673 12.691C12.0819 12.9814 11.604 13.4597 11.314 14.051C11.135 14.3989 11.0421 14.7847 11.043 15.176V15.487H11.458L11.674 15.148C11.8469 14.864 12.0951 14.6335 12.391 14.482C12.9503 14.262 13.5725 14.2645 14.13 14.489C14.5119 14.5662 14.9067 14.5512 15.2816 14.4452C15.6566 14.3393 16.0009 14.1456 16.286 13.88C16.6271 13.5265 16.833 13.0642 16.8673 12.5742C16.9017 12.0841 16.7624 11.5976 16.474 11.2Z" fill="#095DA9"/>
<path d="M8.7952 9.022C8.36143 8.35949 7.83851 7.75986 7.24118 7.24L6.51819 6.933C6.51819 6.933 4.22619 6.54 3.43219 8.14C3.21906 8.58535 3.13423 9.08127 3.18722 9.57213C3.24021 10.063 3.42891 10.5294 3.73218 10.919C4.42975 11.3563 5.18553 11.6929 5.97717 11.919C6.47524 12.0781 6.96459 12.2634 7.44317 12.474C8.10098 12.7927 8.6302 13.3265 8.94317 13.987C9.09951 14.3506 9.19059 14.7388 9.21219 15.134V15.485H9.55218V13.376C9.67705 11.8838 9.41639 10.3845 8.7952 9.022Z" fill="#095DA9"/>
<path d="M16.6522 8.67201C16.5486 8.33637 16.3786 8.02502 16.1521 7.75653C15.9256 7.48804 15.6474 7.2679 15.334 7.10926C15.0206 6.95061 14.6785 6.85669 14.3281 6.83311C13.9776 6.80953 13.626 6.85677 13.2942 6.97201C13.0221 7.04429 12.7676 7.1712 12.5462 7.34501C11.9931 7.83644 11.5087 8.40019 11.1062 9.02101C10.4854 10.3843 10.2254 11.8843 10.3512 13.377V15.486H10.8052V14.962C10.8501 14.5507 10.977 14.1525 11.1782 13.791C11.4938 13.2177 11.9809 12.7576 12.5712 12.475C13.0494 12.2642 13.5384 12.079 14.0362 11.92C14.8271 11.6937 15.5822 11.3571 16.2792 10.92L16.2552 10.885C16.2552 10.885 17.1062 10.292 16.6522 8.67201Z" fill="#095DA9"/>
<path d="M5.54169 17.293L6.07267 17.439L5.87269 18.163C5.788 18.168 5.70305 18.166 5.61869 18.157C5.52369 18.1463 5.42971 18.1279 5.33768 18.102C5.20282 18.068 5.07933 17.999 4.97968 17.902C4.89297 17.8132 4.83509 17.7003 4.81366 17.578C4.79202 17.4348 4.80261 17.2886 4.84467 17.15C4.87927 17.0107 4.94801 16.8821 5.04468 16.776C5.13352 16.6801 5.24922 16.6132 5.37668 16.584C5.52204 16.5537 5.67268 16.5606 5.81467 16.604C5.89259 16.6243 5.96805 16.6532 6.03968 16.69C6.10586 16.7236 6.16852 16.7639 6.22669 16.81L6.10468 16.964C6.05568 16.9237 6.00312 16.8879 5.94767 16.857C5.88791 16.8228 5.82407 16.7962 5.75766 16.778C5.65726 16.7476 5.55052 16.7448 5.44867 16.77C5.35554 16.7957 5.27183 16.8478 5.20768 16.92C5.13622 17.0038 5.08522 17.1031 5.05869 17.21C5.02815 17.313 5.01827 17.4211 5.02967 17.528C5.04109 17.621 5.08132 17.708 5.14469 17.777C5.22107 17.8532 5.31743 17.9062 5.42267 17.93C5.4747 17.9453 5.52787 17.9563 5.58167 17.963C5.62667 17.963 5.66767 17.971 5.70667 17.972L5.81968 17.558L5.49369 17.468L5.54169 17.293Z" fill="#095DA9"/>
<path d="M6.98978 16.893C7.09526 16.9098 7.19686 16.9453 7.28976 16.998C7.36044 17.0371 7.41606 17.0987 7.44778 17.173C7.47692 17.2534 7.48246 17.3405 7.46378 17.424C7.45383 17.4916 7.427 17.5555 7.38577 17.61C7.34984 17.6559 7.30404 17.6932 7.25177 17.719C7.20103 17.7435 7.1472 17.761 7.09177 17.771L7.39178 18.516L7.15076 18.471L6.89978 17.792L6.62378 17.741L6.51077 18.353L6.30078 18.314L6.57776 16.814L6.98978 16.893ZM6.94278 17.069L6.75378 17.034L6.65378 17.566L6.85376 17.603C6.94409 17.6281 7.04036 17.6207 7.12576 17.582C7.15869 17.5616 7.18653 17.534 7.20715 17.5013C7.22778 17.4685 7.24066 17.4315 7.24478 17.393C7.25551 17.3557 7.25655 17.3163 7.2478 17.2785C7.23905 17.2407 7.22079 17.2058 7.19476 17.177C7.12266 17.1179 7.0353 17.0804 6.94278 17.069Z" fill="#095DA9"/>
<path d="M9.02122 17.167L8.91624 18.147C8.9066 18.2466 8.87222 18.3421 8.81624 18.425C8.76257 18.5046 8.6863 18.5662 8.59724 18.602C8.4884 18.6424 8.37122 18.6551 8.25624 18.639C8.17652 18.6357 8.09827 18.6162 8.02626 18.5819C7.95425 18.5475 7.88996 18.4989 7.83723 18.439C7.79222 18.3791 7.75964 18.3109 7.74144 18.2382C7.72323 18.1656 7.71975 18.09 7.73122 18.016L7.83122 17.04L8.04423 17.063L7.94423 18.031C7.93478 18.0828 7.93564 18.136 7.94679 18.1875C7.95795 18.239 7.97918 18.2877 8.00923 18.331C8.04427 18.3695 8.08662 18.4007 8.13383 18.4227C8.18105 18.4447 8.23218 18.457 8.28422 18.459C8.35816 18.4698 8.43362 18.4612 8.50322 18.434C8.56022 18.4092 8.60811 18.3672 8.64024 18.314C8.67444 18.2524 8.69521 18.1842 8.70122 18.114L8.80122 17.147L9.02122 17.167Z" fill="#095DA9"/>
<path d="M9.79221 17.2C9.94553 17.1919 10.0968 17.2383 10.2192 17.331C10.2641 17.3744 10.2986 17.4273 10.3202 17.4858C10.3419 17.5443 10.35 17.6069 10.3442 17.669C10.3428 17.7324 10.3303 17.795 10.3072 17.854C10.2843 17.9123 10.2479 17.9643 10.2012 18.006C10.146 18.0524 10.0816 18.0865 10.0122 18.106C9.92035 18.1307 9.82521 18.1408 9.73022 18.136L9.55621 18.13L9.53821 18.714L9.32422 18.708L9.37222 17.185L9.79221 17.2ZM9.7702 17.378L9.5802 17.372L9.56223 17.951H9.71323C9.78831 17.9552 9.86358 17.9475 9.93622 17.928C9.99098 17.9137 10.0395 17.8817 10.0742 17.837C10.1085 17.7867 10.1263 17.7269 10.1252 17.666C10.1296 17.6264 10.1244 17.5863 10.1102 17.549C10.0959 17.5118 10.073 17.4785 10.0432 17.452C9.96293 17.3977 9.86689 17.3717 9.7702 17.378Z" fill="#095DA9"/>
<path d="M11.166 17.2L11.607 17.169C11.7565 17.1489 11.9087 17.1675 12.049 17.223C12.1005 17.2496 12.1434 17.2902 12.173 17.34C12.2025 17.3899 12.2174 17.4471 12.216 17.505C12.2206 17.5592 12.2135 17.6138 12.195 17.665C12.1778 17.7124 12.1485 17.7544 12.11 17.787C12.0675 17.822 12.0176 17.847 11.964 17.86V17.87C12.0229 17.8748 12.0804 17.8901 12.134 17.915C12.1846 17.9378 12.2274 17.975 12.257 18.022C12.292 18.0783 12.3113 18.1428 12.313 18.209C12.3217 18.2924 12.3046 18.3765 12.264 18.45C12.2233 18.5202 12.1623 18.5763 12.089 18.611C12.0007 18.6531 11.9048 18.6769 11.807 18.681L11.273 18.719L11.166 17.2ZM11.424 17.824L11.689 17.805C11.7791 17.808 11.8675 17.7805 11.94 17.727C11.9625 17.703 11.9794 17.6744 11.9895 17.643C11.9995 17.6117 12.0024 17.5786 11.998 17.546C11.9978 17.5119 11.9884 17.4785 11.9708 17.4493C11.9532 17.4201 11.928 17.3961 11.898 17.38C11.8122 17.3451 11.7187 17.3337 11.627 17.347L11.388 17.364L11.424 17.824ZM11.437 17.999L11.474 18.524L11.764 18.504C11.8593 18.5066 11.952 18.4734 12.024 18.411C12.0478 18.3839 12.0657 18.3521 12.0766 18.3176C12.0874 18.2832 12.091 18.2469 12.087 18.211C12.0854 18.1634 12.0701 18.1172 12.043 18.078C12.0129 18.0395 11.9712 18.0118 11.924 17.999C11.8548 17.9817 11.783 17.9766 11.712 17.984L11.437 17.999Z" fill="#095DA9"/>
<path d="M13.179 17.156C13.1081 17.1654 13.0399 17.1896 12.979 17.227C12.9222 17.2628 12.8745 17.3114 12.84 17.369C12.8039 17.4305 12.7801 17.4984 12.77 17.569C12.7571 17.6522 12.7571 17.7368 12.77 17.82C12.7827 17.9279 12.8167 18.0323 12.87 18.127C12.914 18.2059 12.9815 18.2691 13.063 18.308C13.1531 18.3466 13.2527 18.3574 13.349 18.339C13.4124 18.3303 13.4748 18.3149 13.535 18.293C13.594 18.272 13.6518 18.2476 13.708 18.22L13.735 18.401C13.6807 18.432 13.6234 18.4574 13.564 18.477C13.4939 18.4983 13.4224 18.5144 13.35 18.525C13.2156 18.5495 13.0771 18.536 12.95 18.486C12.8385 18.4367 12.7449 18.3543 12.682 18.25C12.6096 18.1275 12.5633 17.9913 12.546 17.85C12.5289 17.744 12.5289 17.636 12.546 17.53C12.5612 17.4355 12.5951 17.3451 12.646 17.264C12.6974 17.1856 12.7657 17.1196 12.846 17.071C12.9382 17.0177 13.0402 16.9837 13.146 16.971C13.2201 16.9599 13.2952 16.9572 13.37 16.963C13.4409 16.9676 13.511 16.9803 13.579 17.001L13.526 17.188C13.4702 17.1723 13.4134 17.1606 13.356 17.153C13.2972 17.1452 13.2375 17.1463 13.179 17.156Z" fill="#095DA9"/>
<path d="M15.0625 18.158L14.7965 17.758L14.2155 17.892L14.1545 18.371L13.9375 18.42L14.1615 16.8L14.3755 16.751L15.2815 18.112L15.0625 18.158ZM14.6975 17.587L14.4405 17.187L14.4035 17.125C14.3865 17.098 14.3695 17.069 14.3525 17.04L14.3105 16.966C14.3105 16.9946 14.3105 17.0256 14.3105 17.059C14.3105 17.092 14.3105 17.123 14.3045 17.151L14.2985 17.22L14.2405 17.694L14.6975 17.587Z" fill="#095DA9"/>
</g>
<defs>
<clipPath id="clip0_216_730">
<rect width="64" height="20.346" fill="white"/>
</clipPath>
</defs>
</svg>
