<svg width="24" height="23" viewBox="0 0 24 23" fill="none" xmlns="http://www.w3.org/2000/svg">
<path d="M16.9467 0.500005C15.0908 0.501639 13.3115 1.24021 12 2.55334C11.3523 1.89428 10.5806 1.36997 9.72926 1.01066C8.87794 0.651353 7.96391 0.464151 7.03988 0.459854C6.11585 0.455556 5.20012 0.634249 4.34549 0.985625C3.49087 1.337 2.71427 1.85411 2.06049 2.50711C1.40672 3.16012 0.888696 3.93611 0.536313 4.79032C0.18393 5.64453 0.00415822 6.56005 0.00736641 7.48408C0.0105746 8.40811 0.1967 9.32237 0.555006 10.1741C0.913312 11.0258 1.43671 11.7982 2.095 12.4467L12 22.3517L21.905 12.4467C22.8834 11.467 23.5494 10.2192 23.8186 8.86108C24.0878 7.50294 23.9482 6.09546 23.4174 4.81666C22.8867 3.53786 21.9886 2.44518 20.8368 1.67682C19.685 0.908451 18.3312 0.498915 16.9467 0.500005ZM20.2483 10.8017L12 19.05L3.75167 10.8017C3.31809 10.3681 2.97415 9.85335 2.7395 9.28685C2.50485 8.72035 2.38408 8.11318 2.38408 7.5C2.38408 6.88683 2.50485 6.27966 2.7395 5.71316C2.97415 5.14665 3.31809 4.63192 3.75167 4.19834C4.18525 3.76476 4.69999 3.42082 5.26649 3.18617C5.83299 2.95152 6.44016 2.83074 7.05334 2.83074C7.66651 2.83074 8.27369 2.95152 8.84019 3.18617C9.40669 3.42082 9.92142 3.76476 10.355 4.19834L12 5.85501L13.645 4.21C14.5347 3.36129 15.7171 2.88778 16.9467 2.88778C18.1763 2.88778 19.3586 3.36129 20.2483 4.21C20.6822 4.64341 21.0264 5.15809 21.2613 5.72462C21.4961 6.29114 21.617 6.8984 21.617 7.51167C21.617 8.12494 21.4961 8.7322 21.2613 9.29873C21.0264 9.86525 20.6822 10.3799 20.2483 10.8133V10.8017Z" fill="white"/>
</svg>
