<svg width="64" height="19" viewBox="0 0 64 19" fill="none" xmlns="http://www.w3.org/2000/svg">
<g clip-path="url(#clip0_216_747)">
<path d="M32.4443 7.74103C33.283 7.87974 34.0828 8.19429 34.7913 8.66403C35.3619 9.07191 35.8319 9.6046 36.1655 10.2216C36.4992 10.8385 36.6876 11.5235 36.7165 12.2242C36.7455 12.925 36.6141 13.6232 36.3325 14.2655C36.0508 14.9079 35.6263 15.4775 35.0913 15.931C33.6156 17.1605 31.754 17.8307 29.8333 17.824C27.5483 17.831 25.2623 17.824 22.9763 17.824H22.5973C22.5603 17.685 22.6703 17.666 22.7283 17.619C22.9999 17.4117 23.2556 17.1844 23.4933 16.939C23.6087 16.8209 23.6995 16.6811 23.7605 16.5276C23.8214 16.3742 23.8513 16.2101 23.8483 16.045C23.8403 11.2604 23.8403 6.47536 23.8483 1.69003C23.8528 1.53584 23.8225 1.38262 23.7594 1.24183C23.6964 1.10104 23.6023 0.976334 23.4843 0.877032C23.2145 0.649425 22.9269 0.443769 22.6243 0.262032C22.7243 0.149032 22.8413 0.190032 22.9393 0.190032C25.4173 0.190032 27.8953 0.169032 30.3733 0.196032C31.6256 0.203422 32.8369 0.643229 33.8023 1.44103C34.1608 1.7694 34.4499 2.16631 34.6525 2.60831C34.855 3.0503 34.9669 3.52841 34.9815 4.01438C34.9962 4.50035 34.9133 4.98433 34.7377 5.43771C34.5621 5.89109 34.2974 6.30468 33.9593 6.65403C33.5856 7.03578 33.145 7.3456 32.6593 7.56803C32.5793 7.60303 32.4673 7.60603 32.4443 7.74103ZM26.7163 12.348C26.7163 13.395 26.7243 14.441 26.7163 15.487C26.7163 15.766 26.7973 15.86 27.0803 15.856C28.0093 15.841 28.9403 15.814 29.8673 15.856C30.7817 15.8907 31.6809 15.6155 32.4193 15.075C32.9855 14.7494 33.4394 14.2596 33.721 13.6703C34.0026 13.081 34.0986 12.4201 33.9963 11.775C33.8032 10.9705 33.3532 10.2507 32.7144 9.72473C32.0757 9.19876 31.283 8.89521 30.4563 8.86003C29.3243 8.84603 28.1923 8.86003 27.0563 8.85103C26.7863 8.85103 26.7093 8.94003 26.7123 9.20103C26.7223 10.255 26.7153 11.302 26.7153 12.348H26.7163ZM26.7163 4.63103C26.7163 5.45303 26.7243 6.27503 26.7163 7.09603C26.7163 7.35603 26.7913 7.45303 27.0613 7.44903C27.946 7.43503 28.8313 7.43503 29.7173 7.44903C30.0924 7.45799 30.4623 7.35944 30.7833 7.16503C31.2951 6.90074 31.7143 6.48686 31.9851 5.97846C32.2559 5.47006 32.3655 4.89124 32.2993 4.31903C32.2601 3.64998 31.9621 3.02243 31.4685 2.56911C30.9749 2.11579 30.3243 1.87226 29.6543 1.89003C28.7903 1.89003 27.9253 1.89703 27.0613 1.88503C26.8003 1.88503 26.7053 1.96303 26.7103 2.23103C26.7243 3.03103 26.7153 3.83103 26.7153 4.63103H26.7163Z" fill="#045E6A"/>
<path d="M51.0875 0.214036H55.6815C55.3545 0.408036 55.0985 0.553036 54.8495 0.708036C54.6489 0.818388 54.4836 0.983229 54.3726 1.18353C54.2617 1.38383 54.2096 1.61142 54.2225 1.84004C54.2392 7.29737 54.2415 12.7544 54.2295 18.211C54.2295 18.351 54.3105 18.548 54.1575 18.62C54.0325 18.679 53.9165 18.52 53.8045 18.441C52.3775 17.401 51.1136 16.154 50.0545 14.741C47.3715 11.377 44.7695 7.94904 42.1605 4.52704C42.1175 4.46904 42.0605 4.41804 42.0145 4.36204C41.8835 4.44504 41.9325 4.56204 41.9325 4.66204C41.9325 8.45337 41.9305 12.2447 41.9265 16.036C41.9237 16.2237 41.9606 16.4098 42.0349 16.5822C42.1092 16.7546 42.2191 16.9092 42.3575 17.036C42.6085 17.28 42.8695 17.514 43.1705 17.794H38.6445C38.8975 17.552 39.1305 17.328 39.3665 17.106C39.5328 16.9549 39.6637 16.7691 39.7501 16.5617C39.8365 16.3543 39.8763 16.1305 39.8665 15.906C39.8535 11.261 39.8465 6.61504 39.8725 1.96904C39.8888 1.69891 39.8333 1.42928 39.7116 1.18758C39.5899 0.945888 39.4063 0.740748 39.1795 0.593036C39.0365 0.493036 38.8975 0.381036 38.7475 0.268036C38.7985 0.228993 38.8575 0.201746 38.9203 0.188258C38.983 0.17477 39.048 0.175377 39.1105 0.190036C40.2105 0.190036 41.3105 0.198036 42.4105 0.180036C42.5357 0.171331 42.6607 0.19898 42.7705 0.259654C42.8803 0.320328 42.9703 0.411444 43.0295 0.522036C44.6155 2.92204 46.2105 5.30704 47.9295 7.61004C49.3085 9.45904 50.7205 11.282 52.1175 13.117C52.1495 13.16 52.1735 13.208 52.1995 13.251C52.3515 13.143 52.2995 13.027 52.2995 12.931C52.2995 9.17104 52.3015 5.4117 52.3055 1.65304C52.3084 1.52545 52.2851 1.39862 52.2369 1.28044C52.1887 1.16226 52.1168 1.05524 52.0255 0.966036C51.7257 0.699777 51.4126 0.448792 51.0875 0.214036Z" fill="#045E6A"/>
<path d="M63.9931 17.804H58.7051C58.9321 17.613 59.0971 17.47 59.2671 17.333C59.5131 17.1478 59.7099 16.9051 59.8403 16.6262C59.9707 16.3472 60.0307 16.0405 60.0151 15.733C59.9851 11.1403 59.9851 6.54768 60.0151 1.95501C60.0354 1.68484 59.9801 1.41435 59.8554 1.17381C59.7307 0.93327 59.5415 0.73217 59.3091 0.59301C59.1421 0.48401 58.9801 0.36701 58.7431 0.20401H64.0021C63.6876 0.369829 63.3867 0.56008 63.1021 0.77301C62.9409 0.885818 62.8106 1.03734 62.7232 1.21365C62.6358 1.38996 62.5942 1.5854 62.6021 1.78201C62.6167 6.47134 62.6167 11.16 62.6021 15.848C62.5867 16.0923 62.6303 16.3368 62.7292 16.5608C62.828 16.7847 62.9792 16.9817 63.1701 17.135L63.9931 17.804Z" fill="#045E6A"/>
<path d="M2.97205 0.0129888C3.84805 0.0129888 4.72372 0.0129888 5.59905 0.0129888C5.73805 0.0129888 5.89205 -0.0230112 5.79905 0.224989C5.19843 1.94936 5.28656 3.839 6.04505 5.49999C6.76705 7.1913 7.73704 8.76558 8.92306 10.171C9.06806 10.354 9.08305 10.435 8.88305 10.584C8.38305 10.953 7.90605 11.345 7.43005 11.741C7.28205 11.864 7.21105 11.87 7.08305 11.708C4.99005 9.07499 2.91306 6.42899 0.776056 3.83199C0.494285 3.5331 0.280823 3.17655 0.15046 2.78701C0.0200982 2.39748 -0.0240545 1.98427 0.0210506 1.57599C0.0530594 1.14992 0.0530594 0.722055 0.0210506 0.295989C0.0130506 0.0739888 0.0840603 0.00398876 0.30906 0.00698876C1.19906 0.0199888 2.08605 0.0129888 2.97205 0.0129888Z" fill="#EF5B25"/>
<path d="M17.9242 8.88101C17.9242 9.91601 17.9242 10.952 17.9242 11.987C17.9332 12.0701 17.9138 12.1538 17.8691 12.2244C17.8244 12.295 17.7571 12.3485 17.6782 12.376C17.3118 12.5692 16.9027 12.6674 16.4884 12.6614C16.0742 12.6555 15.668 12.5457 15.3072 12.342C13.7968 11.5612 12.5752 10.3185 11.8202 8.79501C11.5092 8.22686 11.371 7.58018 11.4227 6.93452C11.4744 6.28887 11.7137 5.67241 12.1112 5.16101C12.5563 4.59121 13.1864 4.19488 13.8928 4.04058C14.5991 3.88627 15.3372 3.9837 15.9792 4.31601C16.6055 4.59509 17.1955 4.94937 17.7362 5.37101C17.8009 5.41601 17.8527 5.47717 17.8864 5.54841C17.9201 5.61964 17.9345 5.69846 17.9282 5.77701C17.9212 6.81001 17.9242 7.84501 17.9242 8.88101Z" fill="#EF5B25"/>
<path d="M10.3458 7.28101C9.00981 5.71266 8.16779 3.78401 7.92584 1.73801C7.88522 1.23649 7.94994 0.732025 8.11585 0.257007C8.13602 0.175472 8.18549 0.104213 8.25484 0.0568156C8.32418 0.00941815 8.40854 -0.010803 8.49184 6.84662e-06C11.5465 0.00934018 14.6012 0.0123402 17.6558 0.00900691C17.8648 0.00900691 17.9348 0.0690068 17.9318 0.279007C17.9208 0.931007 17.9238 1.57901 17.9318 2.23401C17.9318 2.43401 17.8908 2.46301 17.6948 2.39101C16.7023 1.96929 15.6034 1.86594 14.5497 2.0952C13.496 2.32447 12.5394 2.87505 11.8118 3.67101C11.0641 4.49095 10.5871 5.52135 10.4458 6.62201C10.4118 6.80801 10.3878 6.99601 10.3458 7.28101Z" fill="#EF5B25"/>
<path d="M12.9772 16.718C12.093 16.7023 11.2447 16.3657 10.5902 15.771C9.84163 15.151 9.16746 14.4463 8.58119 13.671C8.05819 13.038 8.06319 13.034 8.70619 12.502C9.04319 12.223 9.39019 11.956 9.71319 11.66C9.90519 11.484 10.0132 11.49 10.1832 11.697C10.8727 12.5568 11.7061 13.2907 12.6462 13.866C13.1841 14.2174 13.7906 14.4502 14.4255 14.549C15.0603 14.6478 15.7089 14.6103 16.3282 14.439C16.6251 14.3498 16.9076 14.2185 17.1672 14.049C17.4133 13.8851 17.6398 13.6935 17.8422 13.478C17.9632 13.544 17.9212 13.641 17.9212 13.717C17.9212 14.987 17.9212 16.258 17.9212 17.528C17.9212 17.699 17.9292 17.834 17.6802 17.828C15.8012 17.819 13.9222 17.822 12.0432 17.82C11.9966 17.8124 11.9507 17.8007 11.9062 17.785L13.0222 16.765L13.0522 16.704L12.9772 16.718Z" fill="#EF5B25"/>
<path d="M0.0527344 17.776V6.57104C0.472734 7.09904 0.85274 7.57105 1.22374 8.04305C2.55574 9.72505 3.88274 11.411 5.22374 13.087C5.38774 13.293 5.37675 13.387 5.17075 13.557C3.55275 14.883 1.94675 16.224 0.336746 17.557C0.255746 17.623 0.170734 17.685 0.0527344 17.776Z" fill="#EF5B25"/>
<path d="M9.01544 17.812H2.32844C2.30044 17.686 2.41843 17.656 2.48243 17.602C3.67243 16.602 4.86444 15.602 6.05844 14.602C6.18144 14.502 6.25844 14.414 6.41044 14.597C7.24944 15.633 8.10144 16.657 8.94844 17.686C8.97377 17.7263 8.99616 17.7684 9.01544 17.812Z" fill="#EF5B25"/>
<path d="M12.9766 16.718L13.0556 16.707L13.0256 16.768L12.9766 16.718Z" fill="#030202"/>
</g>
<defs>
<clipPath id="clip0_216_747">
<rect width="64" height="18.633" fill="white"/>
</clipPath>
</defs>
</svg>
