<svg width="64" height="19" viewBox="0 0 64 19" fill="none" xmlns="http://www.w3.org/2000/svg">
<g clip-path="url(#clip0_216_758)">
<path d="M21.2193 5.23001H21.1973C21.2045 5.23122 21.212 5.23122 21.2193 5.23001Z" fill="#16908C"/>
<path d="M21.3613 5.026V18.093H24.4333V8.29901C24.4328 7.46532 24.1149 6.66307 23.5444 6.05519C22.9738 5.44731 22.1933 5.07935 21.3613 5.026Z" fill="#0CA49D"/>
<path d="M5.02518 15.82C5.35071 15.831 5.6754 15.7805 5.98218 15.671C6.20274 15.5882 6.40172 15.4566 6.56418 15.286C6.70074 15.1331 6.80002 14.9507 6.85419 14.753C6.90562 14.5571 6.93215 14.3555 6.93318 14.153C6.93591 13.9391 6.90487 13.7262 6.84119 13.522C6.78168 13.3391 6.67347 13.176 6.52818 13.05C6.35489 12.9083 6.1529 12.806 5.93617 12.75C5.63348 12.6748 5.32195 12.6412 5.01018 12.65H2.94418V15.826L5.02518 15.82ZM2.94418 7.52V10.668H4.48318C4.77899 10.6702 5.07441 10.6467 5.36618 10.598C5.60357 10.5616 5.83153 10.479 6.03719 10.355C6.22052 10.2379 6.36631 10.0706 6.45718 9.873C6.56198 9.62992 6.61117 9.36652 6.60118 9.10201C6.60895 8.84528 6.57067 8.58924 6.48817 8.34601C6.41954 8.1546 6.29779 7.9867 6.13718 7.862C5.95954 7.73046 5.75441 7.64089 5.53719 7.60001C5.25344 7.54328 4.96453 7.51647 4.67519 7.52H2.94418ZM4.67818 5.308C5.43512 5.29435 6.19078 5.37634 6.92719 5.552C7.47239 5.68104 7.98684 5.91618 8.44118 6.244C8.8176 6.52253 9.1125 6.89685 9.29518 7.328C9.47763 7.78138 9.56871 8.26633 9.56319 8.755C9.56432 9.03491 9.52318 9.31338 9.44118 9.58101C9.35717 9.84905 9.22724 10.1004 9.05717 10.324C8.86767 10.5699 8.64015 10.7839 8.38318 10.958C8.07735 11.1669 7.74554 11.335 7.39618 11.458C8.10394 11.5892 8.75469 11.9336 9.26118 12.445C9.67566 12.9383 9.88979 13.5693 9.86118 14.213C9.86595 14.7343 9.75888 15.2506 9.54718 15.727C9.33463 16.1976 9.01882 16.6142 8.62318 16.946C8.18181 17.3137 7.67201 17.5903 7.12318 17.76C6.46329 17.9649 5.77507 18.0638 5.08418 18.053H-0.0078125V5.306H4.67319L4.67818 5.308Z" fill="#0CA49D"/>
<path d="M18.7497 7.89295C18.6783 8.01348 18.5855 8.11991 18.4757 8.20695C18.3655 8.27893 18.2352 8.31396 18.1037 8.30695C17.9509 8.30125 17.802 8.25723 17.6707 8.17895C17.5157 8.09295 17.3417 7.99895 17.1467 7.89495C16.932 7.78145 16.7078 7.68676 16.4767 7.61194C16.2 7.52276 15.9105 7.47953 15.6197 7.48395C15.1785 7.45022 14.7397 7.57542 14.3827 7.83695C14.2472 7.95563 14.1402 8.10328 14.0696 8.26894C13.999 8.43461 13.9665 8.61404 13.9747 8.79395C13.9682 9.03097 14.0556 9.26096 14.2177 9.43395C14.4036 9.61816 14.6215 9.76692 14.8607 9.87295C15.1566 10.0063 15.4614 10.1192 15.7727 10.2109C16.1137 10.3109 16.4607 10.428 16.8177 10.553C17.1751 10.6779 17.5241 10.8256 17.8627 10.995C18.199 11.1601 18.5066 11.3782 18.7737 11.641C19.0474 11.9158 19.2657 12.2407 19.4167 12.598C19.591 13.0292 19.6741 13.492 19.6607 13.9569C19.667 14.5217 19.5652 15.0825 19.3607 15.609C19.1611 16.1141 18.8579 16.5719 18.4707 16.9529C18.0592 17.3487 17.5703 17.6551 17.0347 17.8529C16.4144 18.0809 15.7574 18.1924 15.0967 18.182C14.6894 18.1812 14.2831 18.1403 13.8837 18.0599C13.4764 17.9787 13.0766 17.8633 12.6887 17.7149C12.3128 17.5699 11.9501 17.3926 11.6047 17.1849C11.2836 16.9941 10.9868 16.7651 10.7207 16.503L11.5947 15.122C11.6671 15.0196 11.7609 14.9343 11.8697 14.872C11.9822 14.8051 12.1109 14.7705 12.2417 14.7719C12.4306 14.7764 12.6144 14.8343 12.7717 14.939C12.9487 15.049 13.1497 15.1739 13.3717 15.3079C13.6191 15.4521 13.8779 15.5756 14.1457 15.6769C14.4774 15.7936 14.8272 15.8502 15.1787 15.844C15.6242 15.8703 16.0655 15.746 16.4317 15.4909C16.5885 15.3512 16.7104 15.1766 16.7877 14.9813C16.865 14.7859 16.8955 14.5752 16.8767 14.3659C16.8877 14.1024 16.8008 13.8442 16.6327 13.641C16.453 13.4435 16.234 13.2857 15.9897 13.178C15.6976 13.0451 15.3949 12.9371 15.0847 12.855C14.7467 12.7603 14.3994 12.6566 14.0427 12.544C13.6848 12.4306 13.3361 12.2898 12.9997 12.1229C12.663 11.9576 12.357 11.7361 12.0947 11.4679C11.8152 11.1756 11.5966 10.8306 11.4517 10.4529C11.2755 9.97307 11.1927 9.46393 11.2077 8.95295C11.2087 8.47147 11.3074 7.99521 11.4977 7.55295C11.6937 7.0931 11.9832 6.67901 12.3477 6.33695C12.7463 5.96598 13.2133 5.67625 13.7227 5.48395C14.3187 5.26078 14.9514 5.1522 15.5877 5.16395C15.9705 5.16321 16.3528 5.19365 16.7307 5.25495C17.0896 5.31349 17.4423 5.40454 17.7847 5.52695C18.1078 5.64127 18.4198 5.78487 18.7167 5.95595C18.9948 6.11517 19.2547 6.30429 19.4917 6.51995L18.7567 7.89394L18.7497 7.89295Z" fill="#0CA49D"/>
<path d="M24.7714 0.317001C24.7654 0.210001 24.7534 0.104 24.7374 0C25.2631 0.543782 25.9512 0.902225 26.6981 1.02142C27.4451 1.14062 28.2105 1.01415 28.8794 0.661011C28.4999 1.32419 28.3484 2.09354 28.4481 2.8511C28.5478 3.60866 28.8932 4.31261 29.4314 4.85501C28.6988 4.7082 27.9386 4.79928 27.2614 5.11499C26.5843 5.4307 26.0258 5.95451 25.6674 6.61C25.56 5.884 25.2272 5.21012 24.716 4.68361C24.2047 4.1571 23.5409 3.80462 22.8184 3.67601C23.4404 3.37192 23.9582 2.89018 24.3064 2.29173C24.6546 1.69329 24.8174 1.00503 24.7744 0.314011L24.7714 0.317001Z" fill="#FAAE3D"/>
<path d="M30.0438 12.879C30.1666 12.8821 30.2892 12.8656 30.4068 12.83C30.4985 12.8031 30.5836 12.7574 30.6568 12.696C30.7224 12.6395 30.7726 12.5672 30.8028 12.486C30.8338 12.4001 30.8494 12.3093 30.8488 12.218C30.8529 12.1333 30.837 12.0488 30.8022 11.9715C30.7675 11.8941 30.7149 11.8261 30.6488 11.773C30.4733 11.6515 30.2617 11.5933 30.0488 11.608H29.2598V12.879H30.0438ZM29.2548 10.011V11.255H29.9068C30.0293 11.2568 30.1515 11.2414 30.2698 11.209C30.3627 11.1836 30.4497 11.1401 30.5258 11.081C30.5911 11.0296 30.6423 10.9625 30.6748 10.886C30.7087 10.805 30.7254 10.7178 30.7238 10.63C30.7316 10.5414 30.718 10.4523 30.684 10.3701C30.6501 10.288 30.5968 10.2152 30.5288 10.158C30.3505 10.0439 30.1398 9.99119 29.9288 10.008H29.2558L29.2548 10.011ZM29.9278 9.62099C30.1229 9.61716 30.3177 9.63969 30.5068 9.68799C30.6516 9.72309 30.7877 9.7874 30.9068 9.87698C31.009 9.95472 31.0887 10.0583 31.1378 10.177C31.1888 10.304 31.2136 10.4401 31.2108 10.577C31.2108 10.665 31.1966 10.7525 31.1688 10.836C31.1403 10.9188 31.0981 10.9963 31.0438 11.065C30.9836 11.1404 30.9113 11.2053 30.8298 11.257C30.7362 11.3155 30.6353 11.3616 30.5298 11.394C30.7545 11.4252 30.964 11.5251 31.1298 11.68C31.1981 11.7535 31.2511 11.8399 31.2854 11.9342C31.3198 12.0285 31.3349 12.1288 31.3298 12.229C31.3323 12.3745 31.3033 12.5188 31.2448 12.652C31.1888 12.7803 31.1031 12.8934 30.9948 12.982C30.8759 13.0773 30.7402 13.1496 30.5948 13.195C30.4174 13.2463 30.2334 13.2709 30.0488 13.268H28.7598V9.62H29.9248L29.9278 9.62099Z" fill="#0CA49D"/>
<path d="M33.9427 11.916L33.3697 10.432C33.3517 10.389 33.3367 10.337 33.3147 10.279C33.2927 10.221 33.2786 10.158 33.2596 10.091C33.23 10.2077 33.1936 10.3225 33.1507 10.435L32.5777 11.916H33.9427ZM34.9697 13.269H34.5887C34.5503 13.2704 34.5125 13.2588 34.4817 13.236C34.4535 13.2137 34.4324 13.1839 34.4207 13.15L34.0797 12.269H32.4437L32.1017 13.15C32.0907 13.1824 32.0706 13.2109 32.0436 13.232C32.0143 13.2574 31.9764 13.2706 31.9377 13.269H31.5566L33.0157 9.62097H33.5157L34.9756 13.269H34.9697Z" fill="#0CA49D"/>
<path d="M38.4023 9.62401V13.272H38.1563C38.1217 13.2735 38.0873 13.2663 38.0563 13.251C38.026 13.2337 38 13.2098 37.9803 13.181L35.8713 10.432L35.8803 10.557C35.8803 10.596 35.8803 10.636 35.8803 10.673V13.273H35.4473V9.625H35.7033C35.7218 9.62512 35.7402 9.62713 35.7583 9.631C35.7865 9.6361 35.8128 9.64891 35.8343 9.668C35.8489 9.68004 35.8622 9.69344 35.8743 9.70801L37.9833 12.453C37.9833 12.408 37.9773 12.368 37.9743 12.325C37.9713 12.282 37.9743 12.243 37.9743 12.206V9.62201H38.4063L38.4023 9.62401Z" fill="#0CA49D"/>
<path d="M39.83 11.221H40.016C40.0687 11.2223 40.1212 11.2142 40.171 11.197C40.2132 11.1777 40.25 11.1481 40.278 11.111L41.491 9.73701C41.5173 9.6975 41.554 9.66602 41.597 9.64602C41.6401 9.62705 41.687 9.61848 41.734 9.62101H42.152L40.762 11.191C40.7325 11.228 40.699 11.2615 40.662 11.291C40.6312 11.3161 40.5976 11.3375 40.562 11.355C40.6081 11.3693 40.6507 11.3932 40.687 11.425C40.7287 11.4585 40.7657 11.4975 40.797 11.541L42.247 13.269H41.825C41.7962 13.2688 41.7675 13.2668 41.739 13.263C41.7189 13.2582 41.6995 13.2511 41.681 13.242C41.6642 13.2332 41.6491 13.2217 41.636 13.208C41.622 13.1941 41.6095 13.1787 41.599 13.162L40.341 11.715C40.3125 11.6764 40.2747 11.6458 40.231 11.626C40.1744 11.6051 40.1142 11.5959 40.054 11.599H39.825V13.269H39.334V9.62101H39.825V11.221H39.83Z" fill="#0CA49D"/>
<path d="M45.8759 10.194C45.8628 10.2168 45.8451 10.2365 45.8239 10.252C45.8048 10.2642 45.7825 10.2705 45.7599 10.27C45.7231 10.2663 45.6882 10.2517 45.6599 10.228C45.6199 10.2 45.5709 10.167 45.5129 10.133C45.4464 10.0926 45.3761 10.0591 45.3029 10.033C45.1104 9.97344 44.9044 9.97344 44.7119 10.033C44.6347 10.0583 44.5633 10.0988 44.5019 10.152C44.4469 10.2021 44.403 10.263 44.3729 10.331C44.3446 10.4019 44.3304 10.4776 44.3309 10.554C44.328 10.6448 44.3535 10.7343 44.4039 10.81C44.4588 10.8792 44.5267 10.937 44.6039 10.98C44.6928 11.0309 44.7866 11.0728 44.8839 11.105C44.9909 11.139 45.0979 11.176 45.2039 11.212C45.313 11.2482 45.4199 11.291 45.5239 11.34C45.6266 11.3833 45.7215 11.4431 45.8049 11.517C45.8896 11.589 45.9577 11.6783 46.0049 11.779C46.0593 11.8984 46.0854 12.0288 46.0809 12.16C46.082 12.3141 46.0542 12.4671 45.9989 12.611C45.9458 12.748 45.8636 12.8719 45.7579 12.974C45.6484 13.081 45.5175 13.1638 45.3739 13.217C45.2082 13.2782 45.0326 13.3084 44.8559 13.306C44.6428 13.3104 44.431 13.2703 44.2343 13.1883C44.0375 13.1064 43.8599 12.9843 43.7129 12.83L43.8559 12.596C43.8692 12.5777 43.8858 12.5621 43.9049 12.55C43.9256 12.5354 43.9506 12.5281 43.9759 12.5292C44.0012 12.5303 44.0255 12.5397 44.0449 12.556C44.0729 12.574 44.1059 12.596 44.1449 12.623C44.1839 12.65 44.2209 12.681 44.2669 12.712C44.3158 12.7459 44.3677 12.7754 44.4219 12.8C44.4865 12.8287 44.5534 12.8521 44.6219 12.87C44.705 12.8877 44.7899 12.8958 44.8749 12.894C44.9815 12.8961 45.0878 12.8799 45.1889 12.846C45.274 12.8164 45.3528 12.7709 45.4209 12.712C45.4844 12.6531 45.5342 12.5811 45.5669 12.501C45.6019 12.4149 45.6195 12.3229 45.6189 12.23C45.6232 12.1339 45.5965 12.0389 45.5429 11.959C45.49 11.8861 45.4217 11.8256 45.3429 11.782C45.2547 11.7305 45.1602 11.6905 45.0619 11.663L44.7419 11.563C44.6329 11.526 44.5259 11.486 44.4219 11.441C44.3202 11.3963 44.2258 11.3366 44.1419 11.264C44.0581 11.1876 43.9902 11.0955 43.9419 10.993C43.8894 10.8632 43.8646 10.7239 43.8689 10.584C43.8689 10.4554 43.8937 10.3281 43.9419 10.209C43.9926 10.089 44.0671 9.98045 44.1609 9.88998C44.2633 9.79261 44.3835 9.71588 44.5149 9.66398C44.6695 9.60549 44.8337 9.57666 44.9989 9.57899C45.1885 9.5775 45.3767 9.61141 45.5539 9.67898C45.719 9.74126 45.8694 9.83692 45.9959 9.95998L45.8769 10.194H45.8759Z" fill="#0CA49D"/>
<path d="M48.0693 11.818V13.272H47.5753V11.818L46.2383 9.62401H46.6703C46.7066 9.62311 46.7421 9.63516 46.7703 9.65801C46.7974 9.68103 46.8201 9.70882 46.8373 9.74001L47.6723 11.157C47.7023 11.218 47.7303 11.273 47.7573 11.325C47.7826 11.3753 47.8049 11.4271 47.8243 11.48C47.8433 11.428 47.8643 11.38 47.8883 11.325C47.9123 11.27 47.9373 11.215 47.9683 11.157L48.8003 9.74001C48.8168 9.7101 48.8385 9.68336 48.8643 9.66101C48.8917 9.63643 48.9275 9.62319 48.9643 9.62401H49.4003L48.0693 11.818Z" fill="#0CA49D"/>
<path d="M51.4563 11.916L50.8833 10.432C50.8653 10.389 50.8503 10.337 50.8283 10.279C50.8063 10.221 50.7923 10.158 50.7733 10.091C50.7437 10.2077 50.7073 10.3225 50.6643 10.435L50.0913 11.916H51.4563ZM52.4833 13.269H52.1023C52.0639 13.2705 52.0262 13.2588 51.9953 13.236C51.9672 13.2137 51.946 13.1839 51.9343 13.15L51.5933 12.269H49.9573L49.6153 13.15C49.6044 13.1824 49.5842 13.2109 49.5573 13.232C49.528 13.2574 49.4901 13.2706 49.4513 13.269H49.0703L50.5293 9.621H51.0293L52.4893 13.269H52.4833Z" fill="#0CA49D"/>
<path d="M53.9769 11.389C54.1048 11.3903 54.2321 11.3727 54.3549 11.337C54.4545 11.3058 54.5475 11.2563 54.6289 11.191C54.703 11.1298 54.7608 11.0511 54.7969 10.962C54.8347 10.869 54.8534 10.7694 54.8519 10.669C54.8583 10.5762 54.8423 10.4833 54.8052 10.398C54.7681 10.3127 54.7111 10.2376 54.6389 10.179C54.4478 10.0556 54.2218 9.99766 53.9949 10.014H53.4559V11.392H53.9739L53.9769 11.389ZM55.6629 13.269H55.2259C55.1866 13.2729 55.1469 13.2655 55.1115 13.2478C55.0761 13.2301 55.0465 13.2028 55.0259 13.169L54.0779 11.869C54.0531 11.832 54.0185 11.8026 53.9779 11.784C53.9303 11.7625 53.8781 11.7529 53.8259 11.756H53.4509V13.277H52.9609V9.629H53.9899C54.1921 9.62603 54.3939 9.64957 54.5899 9.69901C54.7405 9.73577 54.8816 9.80392 55.0039 9.89901C55.111 9.98336 55.1949 10.0935 55.2479 10.219C55.3467 10.4689 55.3531 10.7458 55.2659 11C55.2267 11.1102 55.167 11.212 55.0899 11.3C55.0098 11.392 54.9136 11.4686 54.8059 11.526C54.6877 11.5922 54.5603 11.6404 54.4279 11.669C54.493 11.7077 54.5484 11.7607 54.5899 11.824L55.6529 13.272L55.6629 13.269Z" fill="#0CA49D"/>
<path d="M56.6532 9.62399H56.1562V13.272H56.6532V9.62399Z" fill="#0CA49D"/>
<path d="M59.5237 11.916L58.9507 10.432C58.9317 10.389 58.9167 10.337 58.8957 10.279C58.8747 10.221 58.8587 10.158 58.8407 10.091C58.8108 10.2077 58.7741 10.3226 58.7307 10.435L58.1577 11.916H59.5237ZM60.5507 13.269H60.1697C60.1314 13.27 60.0938 13.2584 60.0627 13.236C60.0343 13.214 60.0131 13.1841 60.0017 13.15L59.6607 12.269H58.0237L57.6827 13.15C57.6714 13.1822 57.6513 13.2106 57.6247 13.232C57.5951 13.2575 57.5568 13.2708 57.5177 13.269H57.1367L58.5967 9.62097H59.0967L60.5567 13.269H60.5507Z" fill="#0CA49D"/>
<path d="M63.9853 9.62399V13.272H63.4913V11.611H61.5223V13.272H61.0293V9.62399H61.5223V11.251H63.4913V9.62399H63.9853Z" fill="#0CA49D"/>
<path d="M29.2557 14.433H28.7617V18.081H29.2557V14.433Z" fill="#0CA49D"/>
<path d="M33.1425 14.433V18.079H32.8965C32.8619 18.0804 32.8275 18.0732 32.7965 18.058C32.7662 18.0407 32.7402 18.0167 32.7205 17.988L30.6115 15.239C30.6115 15.281 30.6175 15.324 30.6205 15.364C30.6235 15.404 30.6205 15.443 30.6205 15.48V18.08H30.1875V14.432H30.4435C30.462 14.4321 30.4804 14.4341 30.4985 14.438C30.5271 14.4419 30.5537 14.4549 30.5745 14.475C30.5891 14.487 30.6025 14.5004 30.6145 14.515L32.7235 17.26L32.7145 17.132C32.7145 17.09 32.7145 17.05 32.7145 17.013V14.429H33.1465L33.1425 14.433Z" fill="#0CA49D"/>
<path d="M37.2392 16.259C37.2433 16.5138 37.1988 16.7669 37.1082 17.005C37.0295 17.2209 36.9053 17.4173 36.744 17.5809C36.5826 17.7445 36.3879 17.8714 36.1732 17.953C35.9385 18.0422 35.6892 18.0866 35.4382 18.084H34.0762V14.436H35.4382C35.6893 14.4327 35.9387 14.4772 36.1732 14.567C36.3879 14.6486 36.5826 14.7756 36.744 14.9391C36.9053 15.1027 37.0295 15.2991 37.1082 15.515C37.1974 15.7538 37.2418 16.0071 37.2392 16.262V16.259ZM36.7332 16.259C36.7364 16.0553 36.7057 15.8526 36.6422 15.659C36.588 15.4933 36.4998 15.3407 36.3832 15.211C36.2702 15.0879 36.1307 14.9922 35.9752 14.931C35.8052 14.8638 35.6239 14.8298 35.4412 14.831H34.5732V17.681H35.4412C35.624 17.6825 35.8053 17.6485 35.9752 17.581C36.1295 17.5191 36.2686 17.4246 36.3832 17.304C36.5 17.1745 36.5882 17.0219 36.6422 16.856C36.7055 16.6624 36.7362 16.4597 36.7332 16.256" fill="#0CA49D"/>
<path d="M41.3258 16.2589C41.3292 16.5156 41.2847 16.7706 41.1948 17.0109C41.1148 17.2305 40.9902 17.431 40.8288 17.6C40.6677 17.7664 40.4736 17.8972 40.2588 17.984C40.0254 18.0767 39.776 18.1222 39.5248 18.118C39.2736 18.1203 39.0241 18.0748 38.7898 17.984C38.575 17.8961 38.381 17.7641 38.2205 17.5965C38.0599 17.4288 37.9364 17.2294 37.8578 17.0109C37.7691 16.7702 37.7247 16.5155 37.7268 16.2589C37.7226 16.0029 37.7671 15.7484 37.8578 15.5089C37.9372 15.2885 38.0619 15.0872 38.2238 14.9179C38.3827 14.75 38.5757 14.618 38.7898 14.531C39.2624 14.3482 39.7862 14.3482 40.2588 14.531C40.4747 14.617 40.6692 14.7491 40.8288 14.9179C40.9905 15.0875 41.1151 15.2887 41.1948 15.5089C41.283 15.7491 41.3274 16.0031 41.3258 16.2589ZM40.8198 16.2589C40.8225 16.0553 40.7918 15.8526 40.7288 15.6589C40.6743 15.4925 40.5861 15.339 40.4698 15.208C40.3569 15.0829 40.2171 14.9851 40.0608 14.9219C39.7182 14.7873 39.3374 14.7873 38.9948 14.9219C38.839 14.9858 38.6993 15.0835 38.5858 15.208C38.4684 15.3381 38.3801 15.4919 38.3268 15.6589C38.2637 15.8526 38.2329 16.0553 38.2358 16.2589C38.2333 16.4626 38.2641 16.6652 38.3268 16.859C38.3815 17.0254 38.4696 17.1789 38.5858 17.3099C38.7005 17.4325 38.8399 17.5294 38.9948 17.594C39.3384 17.7233 39.7173 17.7233 40.0608 17.594C40.2157 17.5294 40.3552 17.4325 40.4698 17.3099C40.5857 17.1786 40.6738 17.0252 40.7288 16.859C40.7921 16.6653 40.8228 16.4626 40.8198 16.2589Z" fill="#0CA49D"/>
<path d="M44.9833 14.433V18.079H44.7364C44.7018 18.0806 44.6674 18.0733 44.6364 18.058C44.6059 18.041 44.5798 18.017 44.5603 17.988L42.4514 15.239L42.4604 15.364C42.4604 15.403 42.4604 15.443 42.4604 15.48V18.08H42.0273V14.432H42.2834C42.3018 14.4322 42.3203 14.4342 42.3383 14.438C42.3518 14.4402 42.365 14.4442 42.3773 14.45C42.3909 14.4563 42.4034 14.4648 42.4143 14.475C42.4284 14.4876 42.4418 14.5009 42.4543 14.515L44.5634 17.26L44.5533 17.132C44.5533 17.09 44.5533 17.05 44.5533 17.013V14.429H44.9864L44.9833 14.433Z" fill="#0CA49D"/>
<path d="M48.165 17.679L48.162 18.081H45.916V14.433H48.162V14.835H46.41V16.045H47.83V16.432H46.41V17.679H48.165Z" fill="#0CA49D"/>
<path d="M50.7168 15.003C50.7041 15.0257 50.6867 15.0455 50.6658 15.061C50.6467 15.0731 50.6244 15.0793 50.6018 15.079C50.5651 15.0752 50.5303 15.0606 50.5018 15.037C50.4618 15.009 50.4138 14.976 50.3558 14.942C50.2894 14.9016 50.219 14.8681 50.1458 14.842C50.0488 14.8113 49.9475 14.7968 49.8458 14.799C49.7462 14.7972 49.6471 14.8128 49.5528 14.845C49.4758 14.8708 49.4045 14.9112 49.3428 14.964C49.2882 15.0141 49.2446 15.0751 49.2148 15.143C49.1864 15.2139 49.1718 15.2896 49.1718 15.366C49.1692 15.4569 49.1951 15.5465 49.2458 15.622C49.3002 15.6917 49.3683 15.7495 49.4458 15.792C49.5346 15.8431 49.6285 15.885 49.7258 15.917C49.8328 15.951 49.9388 15.988 50.0458 16.024C50.1548 16.0604 50.2617 16.1032 50.3658 16.152C50.4682 16.1953 50.5627 16.2551 50.6458 16.329C50.731 16.4004 50.7994 16.4899 50.8458 16.591C50.9007 16.7103 50.927 16.8407 50.9228 16.972C50.9236 17.1262 50.8954 17.2792 50.8398 17.423C50.7867 17.5598 50.7049 17.6836 50.5998 17.786C50.4902 17.893 50.3594 17.9758 50.2158 18.029C50.05 18.0902 49.8744 18.1203 49.6978 18.118C49.4755 18.1211 49.2551 18.0775 49.0508 17.99C48.8629 17.9079 48.693 17.7897 48.5508 17.642L48.6938 17.408C48.7065 17.3892 48.7233 17.3735 48.7428 17.362C48.7628 17.3491 48.786 17.3418 48.8098 17.341C48.8362 17.3429 48.8615 17.3523 48.8828 17.368C48.9173 17.3886 48.9506 17.4109 48.9828 17.435C49.0198 17.462 49.0598 17.493 49.1048 17.523C49.1539 17.5575 49.2061 17.5872 49.2608 17.612C49.3255 17.6407 49.3923 17.6641 49.4608 17.682C49.5439 17.6998 49.6288 17.7079 49.7138 17.706C49.8204 17.7081 49.9266 17.6918 50.0278 17.658C50.1128 17.6283 50.1912 17.5824 50.2588 17.523C50.3216 17.4637 50.3716 17.3923 50.4058 17.313C50.4399 17.2268 50.4573 17.1348 50.4568 17.042C50.4616 16.9458 50.4349 16.8507 50.3808 16.771C50.3293 16.6986 50.2628 16.6383 50.1858 16.594C50.0979 16.5425 50.0038 16.5025 49.9058 16.475L49.5858 16.375C49.4758 16.338 49.3688 16.298 49.2658 16.253C49.1638 16.2083 49.0691 16.1487 48.9848 16.076C48.9011 15.9996 48.8331 15.9075 48.7848 15.805C48.6873 15.5528 48.6873 15.2732 48.7848 15.021C48.8358 14.9006 48.9106 14.7917 49.0048 14.701C49.107 14.6041 49.2268 14.5277 49.3578 14.476C49.5127 14.4175 49.6772 14.3887 49.8428 14.391C50.0321 14.3895 50.22 14.4234 50.3968 14.491C50.5619 14.5533 50.7124 14.6489 50.8388 14.772L50.7198 15.006L50.7168 15.003Z" fill="#0CA49D"/>
<path d="M52.1131 14.433H51.6191V18.081H52.1131V14.433Z" fill="#0CA49D"/>
<path d="M54.9828 16.7251L54.4098 15.241C54.3918 15.195 54.3767 15.146 54.3547 15.088C54.3327 15.03 54.3187 14.9671 54.2997 14.9001C54.27 15.0167 54.2336 15.1315 54.1907 15.244L53.6177 16.7251H54.9828ZM56.0097 18.078H55.6257C55.5874 18.0795 55.5496 18.0679 55.5187 18.045C55.4906 18.0228 55.4694 17.9929 55.4577 17.959L55.1167 17.0791H53.4807L53.1387 17.959C53.1276 17.9916 53.1075 18.0204 53.0807 18.0421C53.051 18.0667 53.0133 18.0795 52.9747 18.078H52.5938L54.0527 14.4301H54.5527L56.0128 18.078H56.0097Z" fill="#0CA49D"/>
</g>
<defs>
<clipPath id="clip0_216_758">
<rect width="63.986" height="18.188" fill="white"/>
</clipPath>
</defs>
</svg>
