<svg width="8" height="15" viewBox="0 0 8 15" fill="none" xmlns="http://www.w3.org/2000/svg">
<path fill-rule="evenodd" clip-rule="evenodd" d="M0.266071 14.7808C0.560617 15.0733 1.03698 15.0733 1.3308 14.7808L7.55844 8.58283C7.69784 8.44621 7.80884 8.28178 7.88469 8.09953C7.96054 7.91728 7.99965 7.72103 7.99965 7.52271C7.99965 7.32438 7.96054 7.12813 7.88469 6.94588C7.80884 6.76364 7.69784 6.5992 7.55844 6.46258L1.28571 0.218832C1.14335 0.0792929 0.954821 0.000862546 0.758418 -0.00053044C0.562016 -0.00192343 0.372462 0.0738254 0.228253 0.211332C0.156814 0.279237 0.0996541 0.361544 0.0603118 0.453154C0.0209695 0.544765 0.000282825 0.643729 -0.000467132 0.743918C-0.00121709 0.844108 0.0179856 0.94339 0.0559519 1.03562C0.0939181 1.12784 0.14984 1.21105 0.220253 1.28008L5.96134 6.99283C6.0311 7.06115 6.08665 7.14339 6.12461 7.23455C6.16257 7.3257 6.18215 7.42387 6.18215 7.52308C6.18215 7.62229 6.16257 7.72046 6.12461 7.81162C6.08665 7.90278 6.0311 7.98502 5.96134 8.05333L0.266071 13.7211C0.196333 13.7893 0.140797 13.8715 0.102847 13.9626C0.0648958 14.0537 0.0453243 14.1518 0.0453243 14.251C0.0453243 14.3501 0.0648958 14.4482 0.102847 14.5393C0.140797 14.6304 0.196333 14.7126 0.266071 14.7808" fill="white"/>
</svg>
