<svg width="24" height="24" viewBox="0 0 24 24" fill="none" xmlns="http://www.w3.org/2000/svg">
<path d="M4.41784 20C4.1374 19.9999 3.86328 19.9167 3.63012 19.7609C3.39696 19.6051 3.21524 19.3836 3.10793 19.1245C3.00062 18.8654 2.97254 18.5803 3.02723 18.3053C3.08193 18.0303 3.21694 17.7776 3.41521 17.5793L17.5967 3.39808C17.8641 3.13976 18.2223 2.99682 18.5942 3.00005C18.966 3.00328 19.3217 3.15243 19.5846 3.41536C19.8476 3.67829 19.9967 4.03397 19.9999 4.4058C20.0032 4.77762 19.8602 5.13584 19.6019 5.4033L5.42047 19.5845C5.28895 19.7164 5.13268 19.821 4.96061 19.8923C4.78855 19.9636 4.60409 20.0002 4.41784 20V20Z" fill="white"/>
<path d="M18.5822 20C18.3959 20.0002 18.2115 19.9636 18.0394 19.8923C17.8673 19.821 17.711 19.7164 17.5795 19.5845L3.39809 5.4033C3.13976 5.13584 2.99682 4.77762 3.00005 4.4058C3.00328 4.03397 3.15243 3.67829 3.41537 3.41536C3.6783 3.15243 4.03399 3.00328 4.40582 3.00005C4.77765 2.99682 5.13588 3.13976 5.40335 3.39808L19.5848 17.5793C19.7831 17.7776 19.9181 18.0303 19.9728 18.3053C20.0275 18.5803 19.9994 18.8654 19.8921 19.1245C19.7848 19.3836 19.603 19.6051 19.3699 19.7609C19.1367 19.9167 18.8626 19.9999 18.5822 20Z" fill="white"/>
</svg>
