<svg width="13" height="12" viewBox="0 0 13 12" fill="none" xmlns="http://www.w3.org/2000/svg">
<path d="M12.5492 2.50499L10.4942 0.449985C10.226 0.198057 9.87459 0.0535041 9.50674 0.043824C9.1389 0.0341439 8.78033 0.160012 8.49925 0.397485L1.74925 7.14748C1.50682 7.39196 1.35587 7.71239 1.32175 8.05499L0.999246 11.1825C0.989143 11.2923 1.0034 11.4031 1.04099 11.5068C1.07859 11.6105 1.1386 11.7046 1.21675 11.7825C1.28683 11.852 1.36994 11.907 1.46132 11.9443C1.55269 11.9816 1.65054 12.0006 1.74925 12H1.81675L4.94425 11.715C5.28684 11.6809 5.60727 11.5299 5.85175 11.2875L12.6017 4.53749C12.8637 4.26071 13.0053 3.89137 12.9955 3.51039C12.9856 3.12941 12.8252 2.76787 12.5492 2.50499ZM4.80925 10.215L2.55925 10.425L2.76175 8.17498L6.99925 3.98998L9.02425 6.01499L4.80925 10.215ZM9.99925 5.00998L7.98925 2.99998L9.45175 1.49998L11.4992 3.54748L9.99925 5.00998Z" fill="#848382"/>
</svg>
