<svg width="258" height="180" viewBox="0 0 258 180" fill="none" xmlns="http://www.w3.org/2000/svg">
<g clip-path="url(#clip0_244_579)">
<rect width="231.864" height="61.0169" rx="6" fill="#FF6881"/>
<path d="M210.811 12.2706C207.658 12.2734 204.636 13.5085 202.408 15.7045C201.307 14.6023 199.996 13.7255 198.55 13.1246C197.104 12.5237 195.551 12.2107 193.981 12.2035C192.411 12.1963 190.856 12.4951 189.404 13.0828C187.952 13.6704 186.633 14.5351 185.522 15.6272C184.411 16.7192 183.531 18.0169 182.933 19.4454C182.334 20.8739 182.029 22.405 182.034 23.9502C182.04 25.4955 182.356 27.0244 182.965 28.4488C183.573 29.8732 184.462 31.1648 185.581 32.2492L202.408 48.8135L219.234 32.2492C220.897 30.611 222.028 28.5243 222.485 26.253C222.943 23.9818 222.705 21.628 221.804 19.4895C220.902 17.3509 219.376 15.5236 217.42 14.2386C215.463 12.9537 213.163 12.2688 210.811 12.2706ZM216.42 29.4983L202.408 43.2921L188.395 29.4983C187.659 28.7732 187.074 27.9124 186.676 26.965C186.277 26.0177 186.072 25.0023 186.072 23.9769C186.072 22.9514 186.277 21.936 186.676 20.9887C187.074 20.0413 187.659 19.1805 188.395 18.4554C189.132 17.7303 190.006 17.1552 190.969 16.7628C191.931 16.3703 192.962 16.1684 194.004 16.1684C195.046 16.1684 196.077 16.3703 197.04 16.7628C198.002 17.1552 198.876 17.7303 199.613 18.4554L202.408 21.2259L205.202 18.4749C206.714 17.0556 208.722 16.2638 210.811 16.2638C212.9 16.2638 214.909 17.0556 216.42 18.4749C217.157 19.1997 217.742 20.0604 218.141 21.0078C218.54 21.9553 218.745 22.9708 218.745 23.9964C218.745 25.022 218.54 26.0375 218.141 26.9849C217.742 27.9323 217.157 28.793 216.42 29.5178V29.4983Z" fill="white"/>
<path d="M185.368 180H247.251L257.286 127.668C257.286 127.668 257.719 114.678 245.826 109.234C233.933 103.791 212.686 98.5949 212.686 98.5949V49.6338C212.686 44.0141 208.124 39.4583 202.496 39.4583C196.869 39.4583 192.307 44.0141 192.307 49.6338V138.926L174.219 112.451C174.219 112.451 169.263 105.523 161.087 109.729C152.91 113.935 157.618 123.091 157.618 123.091L185.369 180H185.368Z" fill="#FFBEC9"/>
<rect x="10.1699" y="12.2034" width="36.6102" height="36.6102" rx="4" fill="white"/>
<rect x="61.0166" y="12.2034" width="93.5593" height="10.1695" rx="2" fill="white"/>
<rect x="61.0166" y="28.4746" width="93.5593" height="6.1017" rx="2" fill="white"/>
</g>
<defs>
<clipPath id="clip0_244_579">
<rect width="257.288" height="180" fill="white"/>
</clipPath>
</defs>
</svg>
