<svg width="24" height="24" viewBox="0 0 24 24" fill="none" xmlns="http://www.w3.org/2000/svg">
<path d="M21.8389 11.1111H2.16111C1.51985 11.1111 1 11.6309 1 12.2722V12.3944C1 13.0357 1.51985 13.5555 2.16111 13.5555H21.8389C22.4802 13.5555 23 13.0357 23 12.3944V12.2722C23 11.6309 22.4802 11.1111 21.8389 11.1111Z" fill="white"/>
<path d="M21.8389 17.2222H2.16111C1.51985 17.2222 1 17.7421 1 18.3833V18.5056C1 19.1468 1.51985 19.6667 2.16111 19.6667H21.8389C22.4802 19.6667 23 19.1468 23 18.5056V18.3833C23 17.7421 22.4802 17.2222 21.8389 17.2222Z" fill="white"/>
<path d="M21.8389 5H2.16111C1.51985 5 1 5.51985 1 6.16111V6.28333C1 6.9246 1.51985 7.44444 2.16111 7.44444H21.8389C22.4802 7.44444 23 6.9246 23 6.28333V6.16111C23 5.51985 22.4802 5 21.8389 5Z" fill="white"/>
</svg>
