<svg width="28" height="28" viewBox="0 0 28 28" fill="none" xmlns="http://www.w3.org/2000/svg">
<path d="M20.9999 16.3333C20.3106 16.3379 19.6309 16.4951 19.0096 16.7937C18.3883 17.0922 17.8409 17.5247 17.4066 18.06L11.4566 15.3183C11.7364 14.4617 11.7364 13.5383 11.4566 12.6817L17.4066 9.94001C18.1085 10.787 19.087 11.3588 20.1694 11.5545C21.2519 11.7502 22.3687 11.5573 23.3227 11.0097C24.2767 10.4622 25.0067 9.59523 25.3837 8.56187C25.7608 7.52852 25.7607 6.39519 25.3834 5.3619C25.0062 4.32861 24.2761 3.46179 23.322 2.91442C22.3678 2.36705 21.251 2.17432 20.1686 2.37023C19.0862 2.56615 18.1078 3.13813 17.4061 3.98522C16.7043 4.8323 16.3244 5.90005 16.3333 7.00001C16.3368 7.27794 16.3641 7.55507 16.4149 7.82834L10.2549 10.6633C9.59819 10.0212 8.76655 9.58711 7.8642 9.41551C6.96186 9.2439 6.02894 9.3424 5.18232 9.69866C4.33571 10.0549 3.61305 10.6531 3.1049 11.4182C2.59674 12.1834 2.32568 13.0815 2.32568 14C2.32568 14.9185 2.59674 15.8166 3.1049 16.5818C3.61305 17.3469 4.33571 17.9451 5.18232 18.3014C6.02894 18.6576 6.96186 18.7561 7.8642 18.5845C8.76655 18.4129 9.59819 17.9788 10.2549 17.3367L16.4149 20.1717C16.3641 20.4449 16.3368 20.7221 16.3333 21C16.3333 21.923 16.607 22.8252 17.1197 23.5927C17.6325 24.3601 18.3614 24.9582 19.2141 25.3114C20.0668 25.6647 21.0051 25.7571 21.9104 25.577C22.8156 25.3969 23.6471 24.9525 24.2998 24.2998C24.9524 23.6472 25.3969 22.8157 25.5769 21.9104C25.757 21.0052 25.6646 20.0669 25.3114 19.2142C24.9582 18.3614 24.36 17.6326 23.5926 17.1198C22.8252 16.607 21.9229 16.3333 20.9999 16.3333ZM20.9999 4.66667C21.4614 4.66667 21.9125 4.80352 22.2963 5.05991C22.68 5.3163 22.979 5.68072 23.1557 6.10708C23.3323 6.53344 23.3785 7.00259 23.2884 7.45522C23.1984 7.90784 22.9762 8.3236 22.6498 8.64992C22.3235 8.97625 21.9078 9.19847 21.4551 9.28851C21.0025 9.37854 20.5334 9.33233 20.107 9.15573C19.6806 8.97912 19.3162 8.68005 19.0598 8.29634C18.8034 7.91262 18.6666 7.4615 18.6666 7.00001C18.6666 6.38117 18.9124 5.78768 19.35 5.35009C19.7876 4.91251 20.3811 4.66667 20.9999 4.66667ZM6.99993 16.3333C6.53844 16.3333 6.08732 16.1965 5.7036 15.9401C5.31989 15.6837 5.02082 15.3193 4.84421 14.8929C4.66761 14.4666 4.6214 13.9974 4.71143 13.5448C4.80146 13.0922 5.02369 12.6764 5.35002 12.3501C5.67634 12.0238 6.0921 11.8015 6.54472 11.7115C6.99734 11.6215 7.4665 11.6677 7.89286 11.8443C8.31922 12.0209 8.68364 12.32 8.94003 12.7037C9.19642 13.0874 9.33326 13.5385 9.33326 14C9.33326 14.6188 9.08743 15.2123 8.64985 15.6499C8.21226 16.0875 7.61877 16.3333 6.99993 16.3333ZM20.9999 23.3333C20.5384 23.3333 20.0873 23.1965 19.7036 22.9401C19.3199 22.6837 19.0208 22.3193 18.8442 21.8929C18.6676 21.4666 18.6214 20.9974 18.7114 20.5448C18.8015 20.0922 19.0237 19.6764 19.35 19.3501C19.6763 19.0238 20.0921 18.8015 20.5447 18.7115C20.9973 18.6215 21.4665 18.6677 21.8929 18.8443C22.3192 19.0209 22.6836 19.32 22.94 19.7037C23.1964 20.0874 23.3333 20.5385 23.3333 21C23.3333 21.6188 23.0874 22.2123 22.6498 22.6499C22.2123 23.0875 21.6188 23.3333 20.9999 23.3333Z" fill="white"/>
</svg>
