<svg width="80" height="45" viewBox="0 0 80 45" fill="none" xmlns="http://www.w3.org/2000/svg">
<path fill-rule="evenodd" clip-rule="evenodd" d="M6.47973 32.1609C10.0196 32.1609 12.9067 31.8873 12.9067 31.5519C12.9067 31.2166 10.0196 30.943 6.47973 30.943C2.93986 30.943 0.0527344 31.2166 0.0527344 31.5519C0.0527344 31.8873 2.93986 32.1609 6.47973 32.1609Z" fill="#CAC9C9"/>
<path fill-rule="evenodd" clip-rule="evenodd" d="M6.12575 12.8938L18.2933 18.0587C18.4617 18.1308 18.5947 18.2666 18.6633 18.4365C18.732 18.6063 18.7306 18.7964 18.6596 18.9653L13.4948 31.1329C13.4227 31.3013 13.2869 31.4343 13.117 31.5029C12.9472 31.5716 12.7571 31.5702 12.5882 31.4992L0.420558 26.3343C0.252168 26.2622 0.119146 26.1264 0.0505192 25.9565C-0.0181076 25.7867 -0.0167681 25.5966 0.0542456 25.4277L5.21912 13.2601C5.29127 13.0917 5.42709 12.9587 5.59694 12.8901C5.76679 12.8215 5.95689 12.8228 6.12575 12.8938Z" fill="#931E26"/>
<path fill-rule="evenodd" clip-rule="evenodd" d="M17.9902 18.7083C18.0035 18.7411 18.0103 18.7761 18.01 18.8115C18.0097 18.8468 18.0025 18.8817 17.9887 18.9143L12.9924 30.685C12.9643 30.7506 12.9114 30.8024 12.8452 30.8291C12.7791 30.8558 12.7051 30.8553 12.6393 30.8276L0.868734 25.8311C0.836203 25.8173 0.806723 25.7972 0.781988 25.772C0.757254 25.7467 0.737753 25.7168 0.724609 25.684L17.9902 18.7083Z" fill="#711720"/>
<path fill-rule="evenodd" clip-rule="evenodd" d="M6.13595 13.9648L17.5172 18.7957C17.5505 18.8099 17.5767 18.8368 17.5903 18.8703C17.6038 18.9039 17.6036 18.9414 17.5895 18.9748L12.7583 30.3557C12.7441 30.389 12.7173 30.4152 12.6837 30.4288C12.6502 30.4424 12.6126 30.4421 12.5793 30.4281L1.19832 25.5971C1.16506 25.5829 1.13878 25.5561 1.12522 25.5225C1.11166 25.489 1.11192 25.4514 1.12595 25.4181L5.9572 14.0368C5.9715 14.0037 5.99829 13.9775 6.03176 13.964C6.06523 13.9505 6.10267 13.9508 6.13595 13.9648Z" fill="#D5262B"/>
<path fill-rule="evenodd" clip-rule="evenodd" d="M17.5918 18.8704C17.5985 18.887 17.6019 18.9048 17.6018 18.9227C17.6016 18.9406 17.5979 18.9583 17.591 18.9748L12.7601 30.3558C12.7458 30.389 12.719 30.4153 12.6855 30.4289C12.6519 30.4424 12.6144 30.4421 12.581 30.4281L1.19977 25.5972C1.16657 25.5829 1.14039 25.5561 1.12695 25.5226L17.5918 18.8704Z" fill="#A22125"/>
<path fill-rule="evenodd" clip-rule="evenodd" d="M15.4984 19.2096L8.436 22.7698L7.73438 19.6148L15.4984 19.2096Z" fill="white"/>
<path fill-rule="evenodd" clip-rule="evenodd" d="M3.39258 25.3137L10.455 21.7536L11.1566 24.9086L3.39258 25.3137Z" fill="#E6E6E5"/>
<path fill-rule="evenodd" clip-rule="evenodd" d="M8.43756 22.7699L10.4536 21.7536L10.6022 22.4216L8.4375 22.7699H8.43756Z" fill="#B4B4B4"/>
<path fill-rule="evenodd" clip-rule="evenodd" d="M28.7277 16.4688V19.0171H28.1396C28.1396 19.0171 27.135 18.8701 27.135 19.3108C27.135 19.7516 27.576 19.8989 28.1886 20.389C28.8012 20.879 29.7568 22.0062 29.7568 23.3048C29.7568 24.6035 28.8992 26.2697 26.2039 26.2697C23.5085 26.2697 23.7289 25.9757 23.7289 25.9757V23.1088C23.7289 23.1088 24.6355 23.4028 25.4686 23.4028C26.3017 23.4028 26.4487 23.1333 26.4487 22.8638C26.4487 22.5942 23.6309 20.8805 23.6309 19.1653C23.6309 18.4854 23.8025 16.15 26.8654 16.15C28.068 16.174 28.7277 16.4688 28.7277 16.4688Z" fill="#D5262B"/>
<path d="M33.8494 16.1499H30.7402V26.2695H33.8494V16.1499Z" fill="#D5262B"/>
<path fill-rule="evenodd" clip-rule="evenodd" d="M47.4738 23.6967H50.387V26.2695H47.4738H44.5605V16.1499H47.4738H50.387V18.7228H47.4738V19.9233H50.0222V22.4962H47.4738V23.6967Z" fill="#D5262B"/>
<path fill-rule="evenodd" clip-rule="evenodd" d="M51.7148 16.15H55.558C56.5936 16.1531 57.5859 16.5658 58.3181 17.2981C59.0504 18.0303 59.4631 19.0226 59.4662 20.0581C59.4662 22.2075 57.8926 23.9663 55.7433 23.9663H54.824V26.2697H51.7148V16.15ZM54.824 18.8451V21.2712H54.9959C55.3173 21.2702 55.6253 21.1421 55.8526 20.9149C56.0799 20.6876 56.208 20.3796 56.209 20.0581C56.208 19.7367 56.0799 19.4287 55.8526 19.2015C55.6253 18.9742 55.3173 18.8461 54.9959 18.8452L54.824 18.8451Z" fill="#D5262B"/>
<path fill-rule="evenodd" clip-rule="evenodd" d="M40.3429 16.1375C41.6295 16.1359 42.868 16.6261 43.8049 17.5077L42.0259 19.7725C41.734 19.4277 41.3432 19.1809 40.9065 19.0655C40.4698 18.95 40.0082 18.9715 39.584 19.1269C39.1599 19.2823 38.7937 19.5643 38.535 19.9346C38.2763 20.3049 38.1376 20.7458 38.1376 21.1975C38.1376 21.6492 38.2763 22.09 38.535 22.4604C38.7937 22.8307 39.1599 23.1126 39.584 23.2681C40.0082 23.4235 40.4698 23.4449 40.9065 23.3295C41.3432 23.214 41.734 22.9672 42.0259 22.6225L43.8049 24.8871C43.2031 25.4518 42.4723 25.8607 41.6762 26.0781C40.8801 26.2956 40.0429 26.3151 39.2376 26.1348C38.4323 25.9545 37.6833 25.58 37.0559 25.0438C36.4285 24.5077 35.9417 23.8263 35.6381 23.0589C35.3345 22.2915 35.2232 21.4615 35.3139 20.6413C35.4045 19.821 35.6945 19.0354 36.1584 18.3529C36.6224 17.6704 37.2462 17.1117 37.9756 16.7256C38.7049 16.3395 39.5177 16.1376 40.3429 16.1376V16.1375Z" fill="#D5262B"/>
<path fill-rule="evenodd" clip-rule="evenodd" d="M63.642 16.1499L68.952 26.2695H58.332L63.642 16.1499Z" fill="#D5262B"/>
<path fill-rule="evenodd" clip-rule="evenodd" d="M62.3606 26.2696H60.3223L63.7216 21.0841L66.1956 23.7804L62.3606 26.2696Z" fill="#E6E6E5"/>
<path fill-rule="evenodd" clip-rule="evenodd" d="M62.3204 23.2221L63.7217 21.0844L64.2456 21.6552L62.3203 23.2222L62.3204 23.2221Z" fill="#B4B4B4"/>
<path fill-rule="evenodd" clip-rule="evenodd" d="M64.3886 17.5768L65.1139 18.9591L62.3194 23.222L60.7988 21.5648L62.1181 19.0506L64.3886 17.5768Z" fill="white"/>
<path fill-rule="evenodd" clip-rule="evenodd" d="M70.0419 16.1499H73.151H75.0015V18.8205H73.151V26.2695H70.0419V18.8205H68.1914V16.1499H70.0419Z" fill="#D5262B"/>
<path fill-rule="evenodd" clip-rule="evenodd" d="M51.9077 28.596L51.981 28.0966H49.145L49.0694 28.596H51.9077ZM48.8827 29.8303L48.5371 32.1153H51.4592L51.5325 31.6158H49.1844L49.3795 30.3183H51.4004L51.4742 29.8303H48.8827ZM55.169 29.9627L57.2427 28.0966H56.4962L54.0325 30.3183L54.3662 28.0966H53.7922L53.1843 32.1153H53.7584L53.9142 31.0705L54.7614 30.3127L56.0721 32.1154H56.7151L55.1582 29.974L55.1692 29.9625L55.169 29.9627ZM59.269 32.1615C60.2679 32.1615 60.9454 31.6908 60.9073 30.91C60.8477 29.6872 58.8063 30.089 58.7652 29.2451C58.7445 28.8201 59.1499 28.5388 59.8101 28.5388C60.2028 28.5324 60.5883 28.6444 60.9164 28.8603L61.123 28.3896C60.7852 28.1715 60.3085 28.0508 59.8148 28.0508C58.8331 28.0508 58.1674 28.5273 58.2049 29.2967C58.2674 30.5826 60.3075 30.152 60.3487 30.9904C60.37 31.4267 59.9457 31.6736 59.297 31.6736C58.7975 31.6736 58.2894 31.4956 57.9714 31.2143L57.7412 31.6736C58.0474 31.9492 58.6548 32.1616 59.2691 32.1616L59.269 32.1615ZM64.4931 28.0969H63.0005L62.3926 32.1157H62.9667L63.1485 30.8986H64.222C65.3817 30.8986 66.076 30.3015 66.0259 29.2736C65.9895 28.5273 65.4289 28.0967 64.4931 28.0967V28.0969ZM64.2092 30.399H63.2275L63.5013 28.5963H64.4658C65.0743 28.5963 65.4308 28.8432 65.4544 29.3255C65.4887 30.0317 65.0302 30.399 64.2092 30.399ZM70.9257 29.274C70.8894 28.5277 70.3287 28.0972 69.3872 28.0972H67.8888L67.2809 32.1159H67.8607L68.042 30.8873H69.2246L69.9849 32.1159H70.5935L69.7947 30.8065C70.543 30.6113 70.9645 30.0716 70.926 29.2736L70.9257 29.274ZM69.109 30.399H68.1158L68.3896 28.5963H69.3599C69.9741 28.5963 70.3306 28.8432 70.3541 29.3255C70.3885 30.0317 69.9299 30.399 69.109 30.399ZM75.626 28.5963L75.6992 28.0969H72.8632L72.7876 28.5963H75.626ZM72.601 29.8307L72.2554 32.1156H75.1775L75.2507 31.6161H72.9027L73.0978 30.3187H75.1186L75.1925 29.8307H72.601ZM78.1447 32.1615C79.1437 32.1615 79.8211 31.6908 79.783 30.91C79.7234 29.6872 77.682 30.089 77.6409 29.2451C77.6202 28.8201 78.0256 28.5388 78.6858 28.5388C79.0785 28.5324 79.464 28.6444 79.792 28.8603L79.9987 28.3896C79.6609 28.1715 79.1842 28.0508 78.6905 28.0508C77.7088 28.0508 77.0432 28.5273 77.0806 29.2967C77.1431 30.5826 79.1833 30.152 79.2244 30.9904C79.2457 31.4267 78.8214 31.6736 78.1727 31.6736C77.6732 31.6736 77.1651 31.4956 76.8471 31.2143L76.6169 31.6736C76.923 31.9488 77.5302 32.1612 78.1447 32.1612V32.1615Z" fill="#989898"/>
</svg>
