<svg width="28" height="27" viewBox="0 0 28 27" fill="none" xmlns="http://www.w3.org/2000/svg">
<path d="M12.0425 20.25C12.342 20.25 12.6293 20.1315 12.8411 19.9205C13.0528 19.7095 13.1718 19.4234 13.1718 19.125V12.375C13.1718 12.0766 13.0528 11.7905 12.8411 11.5795C12.6293 11.3685 12.342 11.25 12.0425 11.25C11.743 11.25 11.4557 11.3685 11.2439 11.5795C11.0321 11.7905 10.9131 12.0766 10.9131 12.375V19.125C10.9131 19.4234 11.0321 19.7095 11.2439 19.9205C11.4557 20.1315 11.743 20.25 12.0425 20.25ZM23.3359 6.75H18.8186V5.625C18.8186 4.72989 18.4616 3.87145 17.8262 3.23851C17.1908 2.60558 16.3291 2.25 15.4305 2.25H13.1718C12.2733 2.25 11.4115 2.60558 10.7761 3.23851C10.1408 3.87145 9.7838 4.72989 9.7838 5.625V6.75H5.26643C4.96691 6.75 4.67966 6.86853 4.46786 7.0795C4.25607 7.29048 4.13708 7.57663 4.13708 7.875C4.13708 8.17337 4.25607 8.45952 4.46786 8.6705C4.67966 8.88147 4.96691 9 5.26643 9H6.39577V21.375C6.39577 22.2701 6.75272 23.1286 7.3881 23.7615C8.02348 24.3944 8.88524 24.75 9.7838 24.75H18.8186C19.7171 24.75 20.5789 24.3944 21.2143 23.7615C21.8496 23.1286 22.2066 22.2701 22.2066 21.375V9H23.3359C23.6354 9 23.9227 8.88147 24.1345 8.6705C24.3463 8.45952 24.4653 8.17337 24.4653 7.875C24.4653 7.57663 24.3463 7.29048 24.1345 7.0795C23.9227 6.86853 23.6354 6.75 23.3359 6.75ZM12.0425 5.625C12.0425 5.32663 12.1615 5.04048 12.3733 4.8295C12.5851 4.61853 12.8723 4.5 13.1718 4.5H15.4305C15.73 4.5 16.0173 4.61853 16.2291 4.8295C16.4409 5.04048 16.5599 5.32663 16.5599 5.625V6.75H12.0425V5.625ZM19.9479 21.375C19.9479 21.6734 19.8289 21.9595 19.6171 22.1705C19.4053 22.3815 19.1181 22.5 18.8186 22.5H9.7838C9.48428 22.5 9.19703 22.3815 8.98524 22.1705C8.77344 21.9595 8.65446 21.6734 8.65446 21.375V9H19.9479V21.375ZM16.5599 20.25C16.8594 20.25 17.1466 20.1315 17.3584 19.9205C17.5702 19.7095 17.6892 19.4234 17.6892 19.125V12.375C17.6892 12.0766 17.5702 11.7905 17.3584 11.5795C17.1466 11.3685 16.8594 11.25 16.5599 11.25C16.2603 11.25 15.9731 11.3685 15.7613 11.5795C15.5495 11.7905 15.4305 12.0766 15.4305 12.375V19.125C15.4305 19.4234 15.5495 19.7095 15.7613 19.9205C15.9731 20.1315 16.2603 20.25 16.5599 20.25Z" fill="#BA3232"/>
</svg>
