<svg width="38" height="38" viewBox="0 0 38 38" fill="none" xmlns="http://www.w3.org/2000/svg">
<path d="M26.2832 22.1667C25.9665 22.0083 23.9082 21.0583 23.5915 20.9C23.2748 20.7417 22.9582 20.7417 22.6415 21.0583C22.3248 21.375 21.6915 22.325 21.3748 22.6417C21.2165 22.9583 20.8998 22.9583 20.5832 22.8C19.4748 22.325 18.3665 21.6917 17.4165 20.9C16.6248 20.1083 15.8332 19.1583 15.1998 18.2083C15.0415 17.8917 15.1998 17.575 15.3582 17.4167C15.5165 17.2583 15.6748 16.9417 15.9915 16.7833C16.1498 16.625 16.3082 16.3083 16.3082 16.15C16.4665 15.9917 16.4665 15.675 16.3082 15.5167C16.1498 15.3583 15.3582 13.4583 15.0415 12.6667C14.8832 11.5583 14.5665 11.5583 14.2498 11.5583H13.4582C13.1415 11.5583 12.6665 11.875 12.5082 12.0333C11.5582 12.9833 11.0832 14.0917 11.0832 15.3583C11.2415 16.7833 11.7165 18.2083 12.6665 19.475C14.4082 22.0083 16.6248 24.0667 19.3165 25.3333C20.1082 25.65 20.7415 25.9667 21.5332 26.125C22.3248 26.4417 23.1165 26.4417 24.0665 26.2833C25.1748 26.125 26.1248 25.3333 26.7582 24.3833C27.0748 23.75 27.0748 23.1167 26.9165 22.4833L26.2832 22.1667ZM30.2415 7.75833C24.0665 1.58333 14.0915 1.58333 7.9165 7.75833C2.84984 12.825 1.89984 20.5833 5.38317 26.7583L3.1665 34.8333L11.5582 32.6167C13.9332 33.8833 16.4665 34.5167 18.9998 34.5167C27.7082 34.5167 34.6748 27.55 34.6748 18.8417C34.8332 14.725 33.0915 10.7667 30.2415 7.75833ZM25.9665 29.925C23.9082 31.1917 21.5332 31.9833 18.9998 31.9833C16.6248 31.9833 14.4082 31.35 12.3498 30.2417L11.8748 29.925L6.9665 31.1917L8.23317 26.4417L7.9165 25.9667C4.1165 19.6333 6.0165 11.7167 12.1915 7.75833C18.3665 3.79999 26.2832 5.85833 30.0832 11.875C33.8832 18.05 32.1415 26.125 25.9665 29.925Z" fill="#70E840"/>
</svg>
